<svg width="400" height="400" viewBox="0 0 400 400" fill="none" xmlns="http://www.w3.org/2000/svg">
<g clip-path="url(#clip0_1_2)">
<path d="M310.152 17C320.382 21.136 317.621 30.2773 318.004 38.5016H371.046C378.945 38.5016 383.139 42.6759 383.053 50.6709C382.91 63.1936 383.397 75.7832 382.279 88.2199C379.815 115.462 367.903 138.425 348.198 157.176C328.492 175.927 305.213 186.119 278.181 188.249C276.942 188.382 275.799 188.979 274.981 189.92C263.949 204.497 250.862 216.571 234.194 224.48C233.363 224.881 232.723 226.734 232.79 227.861C234.28 253.365 242.256 276.844 255.457 298.546C259.402 305.041 264.054 311.126 268.429 317.555H131.271C132.045 316.513 132.618 315.644 133.239 314.89C153.116 289.338 164.98 260.577 167.358 228.1C167.502 226.132 167.358 224.919 165.209 223.935C149.859 216.809 137.585 205.863 127.307 192.566C125.177 189.815 123.133 188.258 119.293 187.943C68.858 183.893 26.4661 144.195 18.3564 93.7888C17.9552 91.3434 17.4585 88.9268 17 86.491V46.3725C19.6364 40.4407 24.1449 38.2819 30.6212 38.4061C46.4298 38.7118 62.248 38.5016 78.0661 38.5016H82.0684C82.4696 30.2487 79.7091 21.1265 89.9297 17H310.152ZM221.901 155.075C228.74 154.75 233.611 149.095 232.58 142.38C231.73 136.84 230.669 131.338 230.02 125.778C229.905 124.244 230.388 122.725 231.367 121.537C235.092 117.526 239.113 113.781 242.982 109.884C246.201 106.646 247.338 102.777 245.704 98.4215C244.147 94.2568 240.986 92.0312 236.582 91.4199C231.395 90.7035 226.237 89.8151 221.05 89.1178C220.118 89.0539 219.224 88.7238 218.474 88.1668C217.724 87.6097 217.149 86.8491 216.819 85.9752C214.708 81.3138 212.243 76.8148 210.037 72.1916C209.126 70.317 207.706 68.7365 205.939 67.6308C204.172 66.5251 202.13 65.9387 200.046 65.9387C197.961 65.9387 195.919 66.5251 194.152 67.6308C192.385 68.7365 190.965 70.317 190.054 72.1916C187.867 76.8244 185.374 81.3138 183.291 85.9943C182.923 86.9199 182.295 87.7195 181.484 88.2973C180.672 88.875 179.711 89.2064 178.716 89.2515C173.768 89.9297 168.849 90.799 163.891 91.4007C159.191 91.9834 155.848 94.2664 154.282 98.7558C152.715 103.245 154.234 107.142 157.568 110.409C161.312 114.077 165.133 117.688 168.696 121.537C169.677 122.721 170.169 124.235 170.071 125.769C169.479 130.965 168.658 136.162 167.674 141.301C166.719 145.981 167.865 149.897 171.686 152.763C175.669 155.695 179.91 155.313 184.103 153.088C188.621 150.7 193.111 148.226 197.753 146.086C199.194 145.508 200.802 145.508 202.242 146.086C207.019 148.283 211.537 150.862 216.236 153.212C218.082 153.954 219.974 154.576 221.901 155.075ZM290.188 165.056C313.915 158.962 332.074 146.64 345.59 127.469C359.918 107.171 363.223 84.3036 361.341 60.1943H316.8C313.734 96.3678 306.474 131.366 290.188 165.056ZM38.7977 60.0892C36.5148 87.9716 41.7111 113.475 60.3758 134.987C73.4429 150.079 89.6432 159.965 109.865 164.942C93.5691 131.338 86.3286 96.2818 83.2624 60.0892H38.7977Z" fill="#CFB647"/>
<path d="M111.384 383.798C106.923 381.534 103.475 378.554 103.522 372.985C103.509 370.215 104.581 367.549 106.51 365.56C108.438 363.571 111.069 362.416 113.838 362.344C117.392 362.239 120.945 362.344 124.9 362.344V339.61H274.905V362.334H284.457C290.943 362.334 295.26 365.429 296.406 370.864C297.514 376.051 294.954 380.416 289.176 383.282C288.984 383.387 288.86 383.616 288.698 383.788L111.384 383.798Z" fill="#CFB647"/>
<path d="M200.046 100.628C202.529 106.359 206.636 109.148 213.418 109.359C207.859 113.6 206.417 118.452 208.184 124.938C202.548 121.289 197.505 121.251 191.945 124.938C193.569 118.548 192.347 113.609 186.806 109.483C193.445 109.062 197.667 106.302 200.046 100.628Z" fill="#CFB647"/>
</g>
<defs>
<clipPath id="clip0_1_2">
<rect width="366.053" height="366.798" fill="white" transform="translate(17 17)"/>
</clipPath>
</defs>
</svg>
