<svg width="400" height="400" viewBox="0 0 400 400" fill="none" xmlns="http://www.w3.org/2000/svg">
<g clip-path="url(#clip0_1_16)">
<path d="M135.588 391.869C122.848 391.869 113.191 388.787 106.616 382.623C100.041 376.048 96.7529 367.623 96.7529 357.349C96.7529 346.254 99.8351 335.98 105.999 326.528C112.575 316.665 120.999 308.857 131.273 303.103C141.547 297.35 152.232 294.473 163.327 294.473C168.259 294.473 173.19 295.09 178.122 296.323C183.464 297.145 188.601 298.583 193.532 300.638V1.05278H216.34V302.487C216.34 320.158 212.436 335.774 204.628 349.336C197.231 362.486 187.368 372.966 175.04 380.774C163.122 388.171 149.971 391.869 135.588 391.869ZM255.175 304.953C262.162 288.926 267.299 273.515 270.586 258.72C273.874 243.515 275.518 229.543 275.518 216.803C275.518 197.488 272.025 181.256 265.038 168.105C258.463 154.544 250.039 143.859 239.765 136.051C229.491 128.243 219.012 123.517 208.327 121.873V22.6278C213.258 32.0798 219.012 40.9153 225.587 49.1343C232.162 56.9424 238.737 64.7506 245.313 72.5587C254.764 82.8325 263.805 93.9282 272.435 105.846C281.065 117.764 288.052 131.53 293.394 147.147C299.147 162.763 302.024 181.256 302.024 202.625C302.024 221.94 299.353 240.022 294.011 256.871C289.079 273.72 281.271 289.747 270.586 304.953H255.175Z" fill="#CFB647"/>
</g>
<defs>
<clipPath id="clip0_1_16">
<rect width="400" height="400" fill="white"/>
</clipPath>
</defs>
</svg>
