<svg id="Isolation_Mode" data-name="Isolation Mode" xmlns="http://www.w3.org/2000/svg" viewBox="0 0 383.22 384" fill="#cfb647"><path d="M306.9,0c10.71,4.33,7.82,13.9,8.22,22.51h55.53c8.27,0,12.66,4.37,12.57,12.74-.15,13.11.36,26.29-.81,39.31-2.58,28.52-15.05,52.56-35.68,72.19s-45,30.3-73.3,32.53a5.17,5.17,0,0,0-3.35,1.75c-11.55,15.26-25.25,27.9-42.7,36.18-.87.42-1.54,2.36-1.47,3.54,1.56,26.7,9.91,51.28,23.73,74,4.13,6.8,9,13.17,13.58,19.9H119.63c.81-1.09,1.41-2,2.06-2.79C142.5,285.11,154.92,255,157.41,221c.15-2.06,0-3.33-2.25-4.36-16.07-7.46-28.92-18.92-39.68-32.84-2.23-2.88-4.37-4.51-8.39-4.84C54.29,174.72,9.91,133.16,1.42,80.39,1,77.83.48,75.3,0,72.75v-42c2.76-6.21,7.48-8.47,14.26-8.34,16.55.32,33.11.1,49.67.1h4.19C68.54,13.87,65.65,4.32,76.35,0ZM214.51,144.55c7.16-.34,12.26-6.26,11.18-13.29-.89-5.8-2-11.56-2.68-17.38a6.25,6.25,0,0,1,1.41-4.44c3.9-4.2,8.11-8.12,12.16-12.2,3.37-3.39,4.56-7.44,2.85-12-1.63-4.36-4.94-6.69-9.55-7.33-5.43-.75-10.83-1.68-16.26-2.41a5.11,5.11,0,0,1-4.43-3.29c-2.21-4.88-4.79-9.59-7.1-14.43a11.63,11.63,0,0,0-20.92,0c-2.29,4.85-4.9,9.55-7.08,14.45a5.42,5.42,0,0,1-4.79,3.41c-5.18.71-10.33,1.62-15.52,2.25-4.92.61-8.42,3-10.06,7.7s-.05,8.78,3.44,12.2c3.92,3.84,7.92,7.62,11.65,11.65a6.31,6.31,0,0,1,1.44,4.43c-.62,5.44-1.48,10.88-2.51,16.26-1,4.9.2,9,4.2,12,4.17,3.07,8.61,2.67,13,.34,4.73-2.5,9.43-5.09,14.29-7.33a6.31,6.31,0,0,1,4.7,0c5,2.3,9.73,5,14.65,7.46A48.36,48.36,0,0,0,214.51,144.55ZM286,155c24.84-6.38,43.85-19.28,58-39.35,15-21.25,18.46-45.19,16.49-70.43H313.86C310.65,83.09,303.05,119.73,286,155ZM22.82,45.11C20.43,74.3,25.87,101,45.41,123.52c13.68,15.8,30.64,26.15,51.81,31.36C80.16,119.7,72.58,83,69.37,45.11Z"/><path d="M98.81,384c-4.67-2.37-8.28-5.49-8.23-11.32a11.09,11.09,0,0,1,10.8-11.14c3.72-.11,7.44,0,11.58,0v-23.8H270v23.79h10c6.79,0,11.31,3.24,12.51,8.93,1.16,5.43-1.52,10-7.57,13-.2.11-.33.35-.5.53Z"/><path d="M191.63,87.55c2.6,6,6.9,8.92,14,9.14-5.82,4.44-7.33,9.52-5.48,16.31-5.9-3.82-11.18-3.86-17,0,1.7-6.69.42-11.86-5.38-16.18C184.72,96.38,189.14,93.49,191.63,87.55Z"/></svg>